<svg xmlns="http://www.w3.org/2000/svg" xmlns:xlink="http://www.w3.org/1999/xlink" width="565" height="240" viewBox="0 0 565 240"><defs><linearGradient id="a" y1="0.5" x2="0.984" y2="0.5" gradientUnits="objectBoundingBox"><stop offset="0" stop-color="#5e8ccc"/><stop offset="1" stop-color="#41ecc5"/></linearGradient><linearGradient id="b" y1="0.5" x2="1" y2="0.5" gradientUnits="objectBoundingBox"><stop offset="0" stop-color="#e498f1"/><stop offset="1" stop-color="#7d98fb"/></linearGradient><linearGradient id="c" x1="0.015" y1="0.5" x2="1" y2="0.5" gradientUnits="objectBoundingBox"><stop offset="0" stop-color="#f9d377"/><stop offset="1" stop-color="#f86e68"/></linearGradient></defs><g transform="translate(-244 -265)"><g transform="translate(244 433)" stroke="rgba(112,112,112,0)" stroke-width="1" fill="url(#a)"><rect width="380" height="24" rx="12" stroke="none"/><rect x="0.5" y="0.5" width="379" height="23" rx="11.5" fill="none"/></g><g transform="translate(473 265)" stroke="rgba(112,112,112,0)" stroke-width="1" fill="url(#b)"><rect width="190" height="24" rx="12" stroke="none"/><rect x="0.5" y="0.5" width="189" height="23" rx="11.5" fill="none"/></g><g transform="translate(603 318)" stroke="rgba(112,112,112,0)" stroke-width="1" fill="url(#c)"><rect width="206" height="24" rx="12" stroke="none"/><rect x="0.5" y="0.5" width="205" height="23" rx="11.5" fill="none"/></g><g transform="translate(675 265)" fill="#adadad" stroke="rgba(112,112,112,0)" stroke-width="1"><rect width="22" height="24" rx="11" stroke="none"/><rect x="0.5" y="0.5" width="21" height="23" rx="10.5" fill="none"/></g><g transform="translate(341 481)" stroke="rgba(112,112,112,0)" stroke-width="1" fill="url(#c)"><rect width="206" height="24" rx="12" stroke="none"/><rect x="0.5" y="0.5" width="205" height="23" rx="11.5" fill="none"/></g></g></svg>