<svg xmlns="http://www.w3.org/2000/svg" width="487.889" height="192.945" viewBox="0 0 487.889 192.945"><g transform="translate(-6.078 -77.234)"><ellipse cx="243.944" cy="16.15" rx="243.944" ry="16.15" transform="translate(6.078 237.88)" fill="#f2f2f2"/><path d="M504.111,324.894c-39.745,0-68.282,25.5-68.282,85,0,67.432,28.537,85.282,68.282,85.282s69.982-19.549,69.982-85.282C574.092,339.627,543.856,324.894,504.111,324.894Zm.261,147.9c-27.528,0-41.91-16.15-41.91-62.855,0-41.21,14.971-62.942,42.5-62.942s42.5,14.275,42.5,62.942c0,45.528-15.56,62.855-43.088,62.855Z" transform="translate(-263.438 -247.66)" fill="#f87369"/><path d="M241.105,455.919H224.672V407.528a9.691,9.691,0,0,0-9.691-9.691h-3.851a9.691,9.691,0,0,0-9.691,9.691v48.391H155.088A5.532,5.532,0,0,1,150.2,447.8l49.058-92.851a9.691,9.691,0,0,0-4.43-13.29l-2.9-1.368a9.691,9.691,0,0,0-12.685,4.194L119.41,456.415a13.141,13.141,0,0,0-1.552,6.2h0A13.141,13.141,0,0,0,131,475.751H201.44v30.6a11.616,11.616,0,0,0,11.616,11.616h0a11.616,11.616,0,0,0,11.616-11.616v-30.6h16.433a9.917,9.917,0,0,0,9.916-9.917h0a9.916,9.916,0,0,0-9.916-9.916Z" transform="translate(-92.513 -255.437)" fill="#6d82dc"/><path d="M899.1,455.919H882.668V407.528a9.691,9.691,0,0,0-9.69-9.691h-3.851a9.691,9.691,0,0,0-9.691,9.691v48.391H813.084a5.533,5.533,0,0,1-4.892-8.117l49.058-92.851a9.691,9.691,0,0,0-4.43-13.29l-2.9-1.368a9.691,9.691,0,0,0-12.685,4.194L777.407,456.415a13.141,13.141,0,0,0-1.552,6.2h0A13.141,13.141,0,0,0,789,475.751h70.44v30.6a11.616,11.616,0,0,0,11.616,11.616h0a11.616,11.616,0,0,0,11.616-11.616v-30.6H899.1a9.917,9.917,0,0,0,9.917-9.917h0a9.916,9.916,0,0,0-9.917-9.916Z" transform="translate(-446.217 -255.437)" fill="#6d82dc"/><path d="M593.786,525.48a2.283,2.283,0,0,1-.61,1.569,2.006,2.006,0,0,1-1.471.651H587.08A2.157,2.157,0,0,1,585,525.48a2.268,2.268,0,0,1,.379-1.268,21.751,21.751,0,0,1,3.089-.212,22.043,22.043,0,0,1,5.147.592A2.344,2.344,0,0,1,593.786,525.48Z" transform="translate(-343.623 -354.688)" fill="#fff"/><circle cx="2.312" cy="2.312" r="2.312" transform="translate(221.953 140.177)" fill="#fff"/><circle cx="2.312" cy="2.312" r="2.312" transform="translate(264.961 140.177)" fill="#fff"/></g></svg>