<svg xmlns="http://www.w3.org/2000/svg" width="228.688" height="123.006" viewBox="0 0 228.688 123.006"><rect width="186.074" height="119.17" transform="translate(0.079 0.105)" fill="#e6e6e6"/><rect width="175.432" height="97.173" transform="translate(5.4 15.052)" fill="#fff"/><rect width="186.074" height="7.905" fill="#3a2876"/><circle cx="1.465" cy="1.465" r="1.465" transform="translate(4.409 2.576)" fill="#fff"/><circle cx="1.465" cy="1.465" r="1.465" transform="translate(9.971 2.576)" fill="#fff"/><circle cx="1.465" cy="1.465" r="1.465" transform="translate(15.532 2.576)" fill="#fff"/><rect width="45.078" height="77.008" transform="translate(21.341 25.135)" fill="#e6e6e6"/><rect width="37.565" height="21.197" transform="translate(74.2 25.135)" fill="#f87269"/><rect width="37.565" height="22.807" transform="translate(74.2 52.235)" fill="#53b8ca"/><rect width="37.565" height="21.197" transform="translate(74.2 80.946)" fill="#5d8fcb"/><rect width="45.078" height="33.56" transform="translate(119.814 25.135)" fill="#e6e6e6"/><rect width="45.078" height="33.56" transform="translate(119.814 68.583)" fill="#6c63ff"/><path d="M639.818,207.321a39.02,39.02,0,1,0,2.212,57.627l47.863,40.386a3.6,3.6,0,1,0,4.638-5.5l-47.863-40.387a39.022,39.022,0,0,0-6.85-52.13Zm-3.085,48.241a29.234,29.234,0,1,1-3.49-41.2A29.234,29.234,0,0,1,636.732,255.563Z" transform="translate(-467.119 -183.177)" fill="#3f3d56"/><path d="M611.355,312.268a29.236,29.236,0,0,1-4.961-39.3q-.838.844-1.621,1.769a29.234,29.234,0,1,0,44.686,37.706q.781-.926,1.471-1.9A29.236,29.236,0,0,1,611.355,312.268Z" transform="translate(-482.938 -236.392)" opacity="0.3"/></svg>